# xmcd
#
# Track frame offsets: 
#        150
#        14498
#        26055
#        38906
#        48633
#        59898
#        68926
#        79643
#        89095
#        105691
#
# Disc length: 1674 seconds
#
# Revision: 0
# Processed by: cddbd v1.5.1PL0 Copyright (c) Steve Scherf et al.
# Submitted via: ExactAudioCopy v0.95a5
#
DISCID=8f06880a
DTITLE=David Gates - Never Let Her Go
DYEAR=1975
DGENRE=Pop
TTITLE0=Never Let Her Go
TTITLE1=Angel
TTITLE2=Playin' on My Guitar
TTITLE3=Watch Out
TTITLE4=Part-Time Love
TTITLE5=Chain Me
TTITLE6=Light Of My Life
TTITLE7=Someday
TTITLE8=Greener Days
TTITLE9=Stranger
EXTD=
EXTT0=
EXTT1=
EXTT2=
EXTT3=
EXTT4=
EXTT5=
EXTT6=
EXTT7=
EXTT8=
EXTT9=
PLAYORDER=
